<svg width="370" height="263" fill="none" xmlns="http://www.w3.org/2000/svg"><path d="M353.366 38.698c4.029 0 8.843-1.425 11.72-3.795C368.773 31.87 370 27.285 370 22.156c0-2.963-.783-5.745-2.155-8.15-1.884-3.303-3.76-5.898-7.36-7.283-1.86-.717-5.003-1.11-7.12-1.11-4.353 0-8.317.545-11.282 3.268-2.008 1.844-3.558 5.294-4.462 7.922a16.461 16.461 0 0 0-.89 5.353c0 3.647 1.188 7.02 3.199 9.754 1.8 2.45 4.263 3.269 7.125 4.437 1.946.794 4.077 2.351 6.31 2.351z" fill="#000"/><path fill-rule="evenodd" clip-rule="evenodd" d="M208.953 84.246c0 3.905 1.464 7.73 2.125 11.448.713 4.015.675 7.903 2.089 11.63 1.018 2.681 3.327 5.28 4.676 7.78a48.238 48.238 0 0 0-7.77 5.362c-1.833 1.551-4.682 3.25-6.29 5.092a48.46 48.46 0 0 0-5.392 7.533c-1.835 3.161-2.15 6.444-3.2 9.788a47.658 47.658 0 0 0-2.172 13.242 48.071 48.071 0 0 0 .894 10.311c-2.206.725-4.564.48-6.867 1.492-2.883 1.267-5.679 3.868-7.979 5.542-.742.54-1.46 1.1-2.155 1.678-5.453 4.544-9.461 10.267-12.105 16.786-2.642 6.511-5.041 13.817-5.041 21.535a49.154 49.154 0 0 0 9.292 28.82c4.65 6.454 10.82 10.631 17.988 14.251 6.756 3.41 14.398 6.451 22.492 6.451 5.464 0 10.723.243 15.642-1.376 2.367-.779 4.654-2.849 6.848-3.956a49.897 49.897 0 0 0 20.539-19.286 49.196 49.196 0 0 0 3.909-8.394c1.835-5.164 3.952-10.72 3.952-16.51 0-7.18-2.655-14.006-5.418-20.165-4.564-10.173-12.475-18.533-22.34-23.695a15.146 15.146 0 0 1-4.42-4.812c-1.391-2.402-.982-5.148-.926-7.922.05-2.479-.407-4.98.927-7.279a15.169 15.169 0 0 1 5.754-5.655c1.063-.592 2.19-2.173 3.358-2.498 2.986-.832 6.225.355 9.268 1.44 5.13 1.988 8.254 2.462 12.678 3.612 5.355 1.392 10.975 1.014 16.769 1.014 7.367 0 14.452 1.04 21.068-1.17a66.06 66.06 0 0 0 22.906-13.244c4.193-3.719 9.023-7.962 12.148-12.625 6.952-10.374 9.883-22.828 9.883-36.22 0-9.191-3.027-17.94-6.471-25.878-2.738-6.312-4.21-12.112-8.705-17.214-7.603-8.63-18.571-14.142-29.761-17.88-6.616-2.21-13.701-4.526-21.068-4.526a66.39 66.39 0 0 0-21.068 3.408c-2.888.964-7.12 2.265-9.812 3.6-5.058 2.505-8.312 5.493-12.528 9.147a66.178 66.178 0 0 0-7.49 7.638c-3.5 4.201-7.601 8.843-9.968 13.83-1.634 3.442-1.855 7.05-2.871 10.788-1.48 5.447-3.388 11.176-3.388 17.087zm67.125 32.485c6.18 0 11.947-1.686 16.869-4.61a32.778 32.778 0 0 0 12.356-13.081c2.3-4.444 2.477-9.476 2.477-14.794 0-7.222-1.27-13.914-5.32-19.325-2.565-3.429-5.798-7.462-9.513-9.67-2.476-1.47-5.165-1.51-8.014-2.297a33.192 33.192 0 0 0-8.855-1.194c-4.387 0-9.685.85-13.501 2.388-6.473 2.611-10.784 7.207-14.416 13.011-3.112 4.972-3.785 10.83-3.785 17.087 0 6.255.673 12.114 3.785 17.086a32.693 32.693 0 0 0 4.818 5.991 32.888 32.888 0 0 0 7.48 5.504c1.09.462 3.289.967 4.357 1.516 3.816 1.54 6.875 2.388 11.262 2.388zm-67.66 80.223c2.42 0 5.84.517 7.914 1.445.303.183.61.363.919.541l1.16 1.046c2.997 1.58 4.33 2.928 5.884 5.931 1.169 2.262 2.949 4.828 2.949 7.548 0 4.903-3.265 9.304-6.671 12.326a16.571 16.571 0 0 1-11.035 4.184c-3.767 0-7.242-.13-10.028-2.238-3.985-3.014-6.56-8.902-6.56-14.272 0-3.664.079-7.048 2.107-9.786a16.592 16.592 0 0 1 13.36-6.725z" fill="#000"/><path d="M135.274 87.762c5.069-1.35 10.219-.845 14.055 2.46 2.525 2.174 4.48 5.076 5.471 8.336.038.16.079.321.122.482.83 3.077 1.358 5.719 3.53 7.754 1.43 1.341 4.208 2.42 6.009 3.185a16.637 16.637 0 0 0 10.828.763 16.553 16.553 0 0 0 9.031-6.096c1.094-1.462 1.942-4.218 2.504-5.959.943-2.923 1.08-5.023.222-8.21a16.693 16.693 0 0 0-.53-1.63c-3.858-12.564-11.272-22.521-22.055-28.48-4.964-2.743-11.523-4.638-17.203-5.55-1.95-.314-5.425-1.434-7.557-1.645-5.147-.512-9.233.278-14.135 1.584-3.97 1.058-7.53 2.735-10.768 4.833-5.19 3.363-9.55 7.807-13.431 12.518-4.066 4.935-8.26 10.627-10.148 16.74-1.814 5.87-1.414 12.128-.866 18.476.245 2.84 1.863 5.696 2.63 8.545 1.308 4.858 2.188 9.35 4.744 13.397 3.399 5.383 5.545 8.862 10.602 12.495 2.724 1.958 7.881 4.754 10.947 6.124a49.25 49.25 0 0 0 30.053 3.288 16.8 16.8 0 0 0 2.256-.44c8.87-2.364 14.134-11.437 11.757-20.265-1.016-3.77-2.142-6.887-5.073-9.036-1.667-1.22-4.674-2.13-6.684-2.669a16.636 16.636 0 0 0-8.61.002l-.029.007c-8.364 1.875-15.673-3.142-17.91-11.448-1.21-4.495-1.486-9.37.841-13.307 1.202-2.034 2.8-3.817 4.715-5.17 1.401-.989 2.972-.628 4.682-1.084zM17.816 19.454a.565.565 0 0 0-.334-.103c-.18 0-.334.103-.436.334-.822 1.848-2.388 4.184-6.213 4.184s-5.57-3.414-5.57-8.394c0-2.875 1.232-6.983 4.877-6.983 2.926 0 3.774 2.285 3.774 4.108v.462l-.052.385c-.025.18.077.282.283.282a.887.887 0 0 0 .333-.077l3.286-1.13c.283-.076.437-.256.437-.513v-.154c-.848-3.799-4.441-5.39-7.856-5.39-7.367 0-9.447 5.852-9.447 10.114 0 5.545 3.363 9.678 9.55 9.678 4.954 0 7.47-3.21 8.574-5.879.129-.308-.051-.41-.282-.513l-.924-.411zm8.158-7.034c0-.051 0-.051-.026-.051h-.076c-.026 0-.078.025-.103.077-.693.488-2.644 1.489-5.083 1.874-.257.025-.36.128-.36.333v.873c-.025.18.052.308.283.334 1.438.154 1.514 1.566 1.514 2.952v3.209c0 1.412-.59 2.439-1.848 2.439h-.051c-.257 0-.385.154-.385.385v.77c0 .257.128.385.385.385h7.444c.257 0 .386-.128.386-.385v-.77c0-.231-.129-.385-.386-.385h-.025c-1.258 0-1.9-1.027-1.9-2.439v-4.723c.385-.925 1.412-2.208 2.567-2.208.719 0 1.232.385 1.232 1.31 0 .359-.05.795-.256 1.308-.026.077-.026.154-.026.206 0 .154.077.256.231.256.051 0 .128-.025.231-.051l2.387-1.001c.617-.257.668-.847.668-1.617 0-1.772-1.284-2.644-2.9-2.644-1.823 0-3.57 1.026-4.519 3.003l.616-3.44zm16.863.745c-.257 0-.385.128-.385.385v.77c0 .256.128.385.385.385h.436c.436 0 .59.205.59.539 0 .436-.282 1.104-.615 1.823l-1.874 3.825-1.72-3.774c-.309-.668-.565-1.284-.565-1.746 0-.41.205-.667.821-.667h.052c.23 0 .359-.129.359-.385v-.77c0-.257-.128-.386-.36-.386h-5.93c-.256 0-.384.129-.384.386v.77c0 .256.128.385.385.385h.051c.642 0 .873.36 1.489 1.617l3.773 7.83-2.875 6.135c-.102.231-.051.41.18.514l1.31.667c.23.103.41.026.513-.18l7.444-14.966c.59-1.283.95-1.617 1.515-1.617h.36c.256 0 .384-.129.384-.385v-.77c0-.257-.128-.386-.385-.386h-4.954zm11.857-.283c0-.051-.026-.077-.052-.077h-.05a.612.612 0 0 0-.232.052c-1.13.513-2.182 1-4.698 1-.256 0-.385.103-.385.334v.873c0 .18.052.308.308.334 1.412.154 1.515 1.566 1.515 2.952v8.805c.026 1.386-.616 2.439-1.874 2.439-.257 0-.385.128-.385.385v.77c0 .257.128.385.385.385h7.342c.257 0 .385-.128.385-.385v-.77c0-.257-.128-.385-.385-.385-1.258 0-1.9-1.053-1.9-2.439v-2.028c.924.77 2.054 1.181 3.337 1.181 3.107 0 6.007-1.977 6.007-6.726 0-4.954-3.388-6.777-5.699-6.777-2.644 0-3.645 1.694-3.927 2.362l.308-2.285zm-.026 3.877s.59-1.67 2.49-1.67c2.105 0 3.543 2.029 3.543 5.34 0 2.105-.668 4.21-3.158 4.21-1.694 0-2.67-1.591-2.875-3.183V16.76zm19.415 6.75c-.077-.127-.18-.204-.308-.204a.59.59 0 0 0-.231.077l-.026.025c-.514.334-1.232.719-1.823.719-.59 0-1.052-.41-1.052-1.746V15.04h3.414c.257 0 .385-.129.385-.386V13.55c0-.231-.128-.386-.385-.386h-3.44V8.852c0-.026-.026-.026-.051-.026h-.052a.195.195 0 0 0-.102.051c-1.053.899-2.413 1.72-3.158 2.105-.18.103-.23.283-.23.488v1.694h-1.85c-.256 0-.384.155-.384.386v.77c0 .256.128.385.385.385 1.848 0 1.848 1.566 1.848 2.926v4.75c0 3.029 1.386 3.953 2.978 3.953 1.283 0 2.695-.59 3.594-1.155l.77-.488c.128-.077.205-.18.205-.308a.414.414 0 0 0-.077-.231l-.41-.642zm5.168-10.088c-2.413 1.078-3.825 3.492-3.825 6.033 0 .924.18 1.9.59 2.798 1.13 2.542 3.595 4.082 6.136 4.082.873 0 1.771-.18 2.593-.565 2.439-1.078 3.85-3.491 3.85-6.033 0-.95-.18-1.9-.59-2.823-1.13-2.542-3.594-4.056-6.16-4.056-.874 0-1.746.18-2.594.564zm.77 1.72c.36-.154.694-.23 1.027-.23 1.592 0 2.952 1.616 3.774 3.44.436.975.719 2.027.719 2.977 0 1.206-.437 2.208-1.566 2.721a2.448 2.448 0 0 1-1.027.205c-1.566 0-2.952-1.591-3.748-3.414-.436-.975-.719-2.028-.719-3.003 0-1.181.437-2.208 1.54-2.696zm22.237-2.747l-1.771.437c-.206.051-.283.18-.283.385v.077c.052.488-.205.642-.436.642a.759.759 0 0 1-.257-.052l-.102-.051c-.925-.59-2.131-.976-3.569-.976-3.49 0-5.622 2.208-5.622 4.93 0 1.36.54 2.592 1.515 3.465-.924.41-1.592 1.258-1.592 2.387 0 .976.411 1.772 1.31 2.336-.899.514-1.54 1.284-1.54 2.413 0 2.157 2.67 3.132 5.801 3.132 3.08 0 6.418-1 6.418-3.799 0-3.055-2.978-3.645-5.982-3.8-3.132-.153-3.722-.538-3.722-1.334 0-.257.129-.462.308-.616.873.462 1.9.719 3.106.719 3.543 0 5.674-2.208 5.674-4.904 0-.872-.231-1.694-.616-2.387 1.129 0 1.951-.976 1.822-2.644-.026-.231-.154-.36-.334-.36h-.128zm-6.418 1.977c1.977 0 2.336 1.925 2.336 3.414 0 1.49-.359 3.389-2.336 3.389-1.925 0-2.49-1.925-2.49-3.389 0-1.489.565-3.414 2.49-3.414zm-.102 15.377c-2.567 0-3.286-.924-3.286-1.72 0-.565.257-1.001.719-1.36a12.57 12.57 0 0 0 2.413.308c2.567.128 4.081.359 4.081 1.463 0 .796-1.386 1.309-3.927 1.309zm13.817-17.328c0-.051 0-.051-.026-.051h-.077c-.025 0-.077.025-.102.077-.693.488-2.644 1.489-5.083 1.874-.257.025-.36.128-.36.333v.873c-.025.18.052.308.283.334 1.437.154 1.514 1.566 1.514 2.952v3.209c0 1.412-.59 2.439-1.848 2.439h-.051c-.257 0-.385.154-.385.385v.77c0 .257.128.385.385.385h7.444c.257 0 .385-.128.385-.385v-.77c0-.231-.128-.385-.385-.385h-.025c-1.258 0-1.9-1.027-1.9-2.439v-4.723c.385-.925 1.412-2.208 2.567-2.208.719 0 1.232.385 1.232 1.31 0 .359-.051.795-.256 1.308-.026.077-.026.154-.026.206 0 .154.077.256.231.256.051 0 .128-.025.231-.051l2.387-1.001c.616-.257.668-.847.668-1.617 0-1.772-1.284-2.644-2.901-2.644-1.823 0-3.568 1.026-4.518 3.003l.616-3.44zm20.373.462c0-.025 0-.025-.026-.025h-.051c-.051 0-.077.025-.128.05-.514.386-1.104.848-2.542 1.438-1.078-.975-2.49-1.489-4.158-1.489-3.107 0-5.982 1.951-5.982 6.726 0 4.955 3.363 6.752 5.674 6.752 2.644 0 3.645-1.669 3.927-2.362l-.308 2.285c0 .051 0 .077.052.077h.051c.077 0 .18-.026.205-.052 1.155-.487 2.208-.975 4.724-.975.256 0 .385-.128.385-.334V24.1c0-.18-.052-.308-.308-.333-1.258-.129-1.464-1.284-1.515-2.516v-8.369zm-3.568 9.498s-.565 1.695-2.49 1.695c-2.105 0-3.543-2.054-3.543-5.34 0-2.105.668-4.184 3.158-4.184 2.028 0 2.669 1.643 2.875 2.695v5.134zm11.263-9.498c0-.051-.026-.077-.051-.077h-.052a.615.615 0 0 0-.231.052c-1.129.513-2.182 1-4.698 1-.256 0-.385.103-.385.334v.873c0 .18.052.308.308.334 1.412.154 1.515 1.566 1.515 2.952v8.805c.026 1.386-.616 2.439-1.874 2.439-.257 0-.385.128-.385.385v.77c0 .257.128.385.385.385h7.342c.257 0 .385-.128.385-.385v-.77c0-.257-.128-.385-.385-.385-1.258 0-1.9-1.053-1.9-2.439v-2.028c.924.77 2.054 1.181 3.338 1.181 3.106 0 6.007-1.977 6.007-6.726 0-4.954-3.389-6.777-5.699-6.777-2.645 0-3.646 1.694-3.928 2.362l.308-2.285zm-.026 3.877s.591-1.67 2.49-1.67c2.105 0 3.543 2.029 3.543 5.34 0 2.105-.667 4.21-3.158 4.21-1.694 0-2.669-1.591-2.875-3.183V16.76zm26.222 7.7c-1.258 0-1.899-1.026-1.899-2.438v-4.492c0-2.44-.693-4.698-4.364-4.698-2.362 0-3.774 1.643-4.236 2.541V5.515c0-.026 0-.052-.051-.052l-.052.026a.193.193 0 0 0-.102.051c-.694.488-2.131 1.464-4.827 2.362-.256.103-.385.128-.385.36v.872c0 .154.052.283.308.308 1.412.154 1.515 1.592 1.515 2.952v9.627c.026 1.412-.59 2.439-1.848 2.439h-.052c-.256 0-.385.154-.385.385v.77c0 .257.129.385.385.385h7.445c.257 0 .385-.128.385-.385v-.77c0-.231-.128-.385-.385-.385h-.051c-1.258 0-1.874-1.027-1.874-2.439v-4.98c.436-1.078 1.848-1.925 3.106-1.925 1.976 0 1.874 1.386 1.874 3.054v3.851c.025 1.412-.385 2.439-1.361 2.439h-.051c-.257 0-.385.154-.385.385v.77c0 .257.128.385.385.385h6.957c.256 0 .385-.128.385-.385v-.77c0-.231-.129-.385-.385-.385h-.052zm5.402-13.58c.462 0 .847-.179 1.284-.64.462-.463.642-.822.642-1.284 0-.463-.18-.848-.642-1.284-.437-.462-.822-.642-1.284-.642-.462 0-.821.18-1.283.642-.462.436-.642.821-.642 1.284 0 .462.18.821.642 1.283.462.462.821.642 1.283.642zm3.697 13.58c-1.258 0-1.9-1.026-1.9-2.438v-9.6c-.025-.052-.025-.052-.051-.052h-.051a.142.142 0 0 0-.129.077c-.693.719-2.002 1.694-4.723 2.593-.231.077-.36.128-.36.333v.873c0 .18.052.308.308.334 1.412.154 1.515 1.591 1.515 2.72v2.722c.026 1.412-.616 2.439-1.874 2.439h-.026c-.256 0-.385.154-.385.385v.77c0 .257.18.385.437.385h7.239c.257 0 .436-.128.436-.385v-.77c0-.231-.128-.385-.385-.385h-.051zm11.685-2.387a.576.576 0 0 0-.257-.077c-.103 0-.206.077-.283.206-.77 1.13-1.874 1.72-2.875 1.822-.154.026-.308.026-.462.026-2.593 0-3.517-2.362-3.517-4.929 0-.308.026-.642.052-.95.154-1.77.924-3.26 2.567-3.26 1.514 0 2.182.873 2.079 2.336l-.026.257c0 .128.077.18.206.18.077 0 .128 0 .231-.026l2.952-.796c.18-.051.282-.154.282-.334v-.102c-.359-1.618-1.54-3.312-4.672-3.517l-.462-.026c-2.901 0-6.135 1.848-6.495 6.11-.282 3.645 2.259 7.265 6.11 7.265.231 0 .462-.026.693-.052 2.439-.23 3.877-1.437 4.698-3.131.077-.206.026-.386-.154-.514l-.667-.488zm13.227-5.236c.154-.077.206-.154.206-.257 0-.077-.026-.154-.052-.257l-1.283-3.26a.439.439 0 0 0-.437-.308h-.667c-.231 0-.334.103-.334.282 0 .052 0 .103.026.154.077.283.103.54-.026.54-.051 0-.077 0-.128-.026-.437-.257-1.797-.848-3.389-.848-2.695 0-4.415 1.49-4.415 3.517 0 1.695.719 3.21 4.903 4.441 1.746.514 3.902 1.002 3.902 2.31 0 .976-.898 1.464-2.49 1.464-2.079 0-4.159-.924-5.802-3.466-.077-.128-.179-.205-.308-.205a.413.413 0 0 0-.231.077l-.77.462c-.154.077-.205.18-.205.308 0 .052 0 .129.051.206l2.208 4.158c.102.18.256.257.462.257h.924c.205 0 .282-.077.282-.205 0-.052 0-.129-.025-.206-.077-.23-.052-.385.128-.385.051 0 .128 0 .205.052a6.845 6.845 0 0 0 2.978.667c3.363 0 5.417-1.771 5.417-4.159 0-3.132-3.414-3.876-5.802-4.492-1.412-.36-2.849-.796-2.849-1.925 0-.976.873-1.31 1.797-1.31 1.232 0 3.029.694 4.595 2.619.102.128.205.205.308.205.077 0 .128-.025.205-.051l.616-.36z" fill="#000"/></svg>